<?xml version="1.0" standalone="no"?>
<!DOCTYPE svg PUBLIC "-//W3C//DTD SVG 20010904//EN"
 "http://www.w3.org/TR/2001/REC-SVG-20010904/DTD/svg10.dtd">
<svg version="1.0" xmlns="http://www.w3.org/2000/svg"
 width="387.000000pt" height="199.000000pt" viewBox="0 0 387.000000 199.000000"
 preserveAspectRatio="xMidYMid meet">

<g transform="translate(0.000000,199.000000) scale(0.100000,-0.100000)"
fill="#000000" stroke="none">
<path d="M1360 980 c0 -731 2 -830 15 -830 13 0 15 99 15 830 0 731 -2 830
-15 830 -13 0 -15 -99 -15 -830z"/>
<path d="M581 1458 c-5 -13 -12 -38 -16 -56 -4 -21 -16 -37 -35 -47 -39 -20
-50 -19 -105 11 l-47 27 -59 -59 -58 -58 28 -50 29 -51 -19 -37 c-16 -32 -27
-39 -79 -54 l-60 -17 0 -81 0 -82 57 -15 c50 -13 61 -20 78 -52 l20 -37 -28
-52 -27 -53 58 -58 59 -59 52 30 c50 28 53 29 86 13 30 -14 38 -25 53 -76 l18
-60 81 -3 80 -3 17 61 c15 54 21 62 54 76 36 15 39 14 91 -11 l54 -26 56 55
55 56 -27 56 c-25 51 -27 59 -15 90 11 31 19 37 70 51 l58 16 0 82 0 82 -58
18 c-52 15 -60 21 -72 53 -12 33 -10 39 16 89 l29 53 -57 56 -56 57 -56 -29
c-53 -28 -55 -28 -89 -12 -30 14 -38 26 -51 72 l-17 56 -80 0 c-73 0 -80 -2
-88 -22z m215 -193 c109 -48 178 -157 178 -280 0 -165 -124 -294 -289 -303
-128 -7 -239 58 -295 173 -33 65 -36 200 -6 255 86 162 254 225 412 155z"/>
<path d="M472 1047 c-29 -29 -52 -59 -52 -68 0 -17 100 -119 117 -119 28 0 21
23 -23 70 l-47 50 47 50 c44 47 51 70 23 70 -7 0 -36 -24 -65 -53z"/>
<path d="M665 1088 c-19 -59 -57 -220 -52 -224 18 -18 36 15 60 108 31 120 32
128 12 128 -9 0 -17 -6 -20 -12z"/>
<path d="M765 1090 c-3 -5 15 -32 41 -60 l47 -50 -47 -50 c-44 -47 -51 -70
-23 -70 18 0 117 103 117 121 0 17 -100 119 -117 119 -7 0 -15 -4 -18 -10z"/>
<path d="M1540 1105 l0 -285 35 0 35 0 0 130 0 130 130 0 130 0 0 30 0 30
-130 0 -130 0 0 95 0 95 140 0 140 0 0 30 0 30 -175 0 -175 0 0 -285z"/>
<path d="M1990 1188 c0 -112 5 -220 11 -241 14 -50 71 -113 117 -128 46 -15
137 -15 177 1 17 6 43 23 58 38 55 52 61 78 65 315 l4 217 -36 0 -36 0 0 -208
c0 -227 -6 -253 -63 -296 -36 -26 -128 -26 -165 1 -58 42 -66 78 -70 301 l-4
202 -29 0 -29 0 0 -202z"/>
<path d="M2560 1105 l0 -285 35 0 35 0 0 135 0 136 153 -3 152 -3 3 -132 3
-133 29 0 30 0 0 285 0 285 -30 0 -30 0 0 -120 0 -120 -155 0 -155 0 0 120 0
120 -35 0 -35 0 0 -285z"/>
<path d="M3150 1105 l0 -285 30 0 29 0 3 128 3 127 41 3 42 3 78 -130 c79
-130 79 -131 117 -131 20 0 37 2 37 5 0 3 -34 60 -75 126 -41 67 -73 125 -70
129 3 5 18 11 33 15 99 21 135 175 57 243 -42 37 -107 52 -230 52 l-95 0 0
-285z m232 214 c66 -18 88 -94 44 -146 -23 -26 -29 -28 -120 -31 l-96 -4 0 96
0 96 68 0 c37 0 84 -5 104 -11z"/>
<path d="M1987 700 c-34 -27 -36 -68 -4 -98 28 -27 57 -28 88 -4 26 22 31 75
8 97 -26 26 -63 28 -92 5z m81 -12 c21 -21 14 -66 -12 -83 -49 -33 -109 33
-70 76 19 21 64 25 82 7z"/>
<path d="M2972 710 c-46 -19 -48 -95 -3 -119 30 -16 55 -13 79 9 31 29 29 73
-4 99 -29 23 -38 24 -72 11z m74 -35 c19 -30 14 -48 -20 -71 -24 -15 -28 -15
-51 0 -27 18 -34 63 -13 84 21 21 66 14 84 -13z"/>
<path d="M1730 645 c0 -37 4 -65 10 -65 6 0 10 16 10 35 0 24 5 35 15 35 8 0
15 5 15 10 0 6 -7 10 -15 10 -30 0 -15 29 18 33 28 3 26 4 -10 5 l-43 2 0 -65z"/>
<path d="M2262 643 c1 -42 3 -53 5 -30 5 46 21 47 51 2 12 -19 27 -35 33 -35
5 0 -2 16 -17 35 -21 29 -24 38 -14 50 19 23 4 45 -30 45 l-30 0 2 -67z m53
42 c0 -5 -10 -11 -22 -13 -16 -2 -23 2 -23 13 0 11 7 15 23 13 12 -2 22 -7 22
-13z"/>
<path d="M2700 691 c5 -11 15 -23 20 -26 6 -3 11 -25 12 -48 1 -40 1 -40 5 -7
3 19 13 46 24 61 26 37 24 47 -5 20 l-25 -23 -13 21 c-16 26 -32 28 -18 2z"/>
<path d="M3232 663 c-1 -35 3 -57 14 -67 22 -22 50 -20 68 6 18 25 22 108 6
108 -5 0 -10 -22 -10 -49 0 -52 -16 -76 -44 -65 -17 6 -23 24 -29 84 -3 26 -4
21 -5 -17z"/>
</g>
</svg>
